<svg width="24" height="33" viewBox="0 0 24 33" fill="none" xmlns="http://www.w3.org/2000/svg">
<path d="M23.309 24.1851L19.8403 19.555C19.3744 18.9366 18.7506 18.5959 18.084 18.5959C17.3903 18.5959 16.7353 18.9603 16.2401 19.6215L14.8899 21.4226C13.8406 20.6445 12.4461 19.5743 10.9982 17.6426C9.55205 15.7124 8.74983 13.8572 8.16366 12.4497L9.51521 10.6477C10.5201 9.30425 10.5406 7.14887 9.56118 5.84327L6.09309 1.21591C5.62854 0.594371 5.00474 0.252075 4.33646 0.252075C3.65825 0.252075 3.01668 0.600465 2.52433 1.23459C2.22647 1.55463 0.731753 3.31512 0.174671 6.9458C-0.605304 12.0276 1.18677 16.9172 6.36026 23.8226C12.1395 31.531 17.0732 32.1301 18.4477 32.1301C18.7338 32.1301 18.9065 32.1066 18.9526 32.0994C21.6478 31.6779 22.6129 30.0809 23.3175 28.9147C24.2305 27.4034 24.2273 25.4148 23.309 24.1851ZM22.158 27.6676C21.4957 28.7636 20.8702 29.7987 18.7793 30.1258C18.7782 30.1259 18.6638 30.143 18.4477 30.143C17.218 30.143 12.7877 29.5858 7.41337 22.4175C2.64247 16.0494 0.96795 11.6823 1.63365 7.34426C2.11955 4.17749 3.40954 2.83148 3.45968 2.78035L3.50416 2.7365L3.54318 2.68431C3.75853 2.39726 4.04019 2.23909 4.33636 2.23909C4.60601 2.23909 4.85542 2.37394 5.03929 2.62007L8.50817 7.24848C8.9073 7.78047 8.88605 8.67569 8.46141 9.24344L6.93293 11.2811L6.90781 11.3162C6.50949 11.9015 6.55635 12.6926 6.77577 13.2078C7.4089 14.7322 8.27615 16.8201 9.94491 19.0472C11.6081 21.2663 13.1707 22.4225 14.31 23.2657C14.4241 23.3511 14.6596 23.4944 14.9544 23.4944C15.3025 23.4944 15.6221 23.2979 15.8587 22.9395L17.2931 21.0262C17.5073 20.7403 17.7881 20.5828 18.0838 20.5828C18.3541 20.5828 18.6048 20.7181 18.7882 20.9615L22.2547 25.5886C22.6951 26.1782 22.5133 27.0797 22.158 27.6676Z" fill="#272727"/>
<path d="M14.5404 5.12195C15.8199 5.3184 17.3264 6.35244 18.3784 7.7562C19.4403 9.17294 20.2172 11.2034 20.3575 12.9291C20.3989 13.4381 20.7215 13.8154 21.0968 13.8154C21.1236 13.8154 21.1508 13.8134 21.1781 13.8096C21.5869 13.7504 21.8824 13.2602 21.838 12.7147C21.6606 10.5334 20.7384 8.09505 19.4315 6.35124C18.1369 4.62374 16.328 3.39642 14.7107 3.14805C14.3023 3.08486 13.9329 3.47643 13.8858 4.02141C13.8388 4.56638 14.1317 5.05916 14.5404 5.12195Z" fill="#272727"/>
<path d="M13.8452 9.28473C14.5372 9.39113 15.4949 10.0762 16.1223 10.9134C16.755 11.758 17.2693 13.0483 17.3451 13.9818C17.3865 14.4911 17.7091 14.8684 18.0844 14.8684C18.1113 14.8684 18.1384 14.8665 18.1656 14.8626C18.5744 14.8034 18.87 14.3131 18.8256 13.7675C18.6961 12.1738 17.9033 10.4798 17.1752 9.508C16.4536 8.54485 15.1966 7.49187 14.0154 7.31021C13.6065 7.24674 13.2375 7.63855 13.1905 8.18365C13.1435 8.72889 13.4366 9.22193 13.8452 9.28473Z" fill="#272727"/>
</svg>
