<?xml version="1.0" encoding="utf-8"?><svg width="24" height="33" fill="none" xmlns="http://www.w3.org/2000/svg" viewBox="0 0 24 33"><path d="M23.309 24.185l-3.469-4.63c-.466-.618-1.09-.96-1.756-.96-.694 0-1.349.365-1.844 1.027l-1.35 1.8c-1.05-.777-2.444-1.848-3.892-3.78-1.446-1.93-2.248-3.785-2.834-5.192l1.351-1.802c1.005-1.344 1.026-3.5.046-4.805L6.093 1.216C5.63.594 5.005.252 4.336.252c-.678 0-1.32.348-1.812.983-.298.32-1.792 2.08-2.35 5.71-.78 5.083 1.013 9.972 6.186 16.878 5.78 7.708 10.713 8.307 12.088 8.307.286 0 .459-.023.505-.03 2.695-.422 3.66-2.02 4.364-3.185.913-1.512.91-3.5-.008-4.73zm-1.151 3.483c-.662 1.096-1.288 2.13-3.379 2.458 0 0-.115.017-.331.017-1.23 0-5.66-.557-11.035-7.726C2.643 16.05.968 11.683 1.633 7.345 2.12 4.177 3.41 2.831 3.46 2.78l.044-.043.04-.053c.215-.287.496-.445.792-.445.27 0 .52.135.703.381l3.47 4.628c.398.532.377 1.428-.048 1.995l-1.528 2.038-.025.035c-.399.585-.352 1.377-.132 1.892.633 1.524 1.5 3.612 3.169 5.84 1.663 2.218 3.226 3.375 4.365 4.218.114.085.35.228.644.228.348 0 .668-.196.905-.555l1.434-1.913c.214-.286.495-.443.79-.443.271 0 .522.135.705.379l3.467 4.627c.44.59.258 1.49-.097 2.079zM14.54 5.122c1.28.196 2.786 1.23 3.838 2.634 1.062 1.417 1.84 3.447 1.98 5.173.04.51.363.886.739.886a.59.59 0 00.081-.005c.409-.06.704-.55.66-1.095-.177-2.182-1.1-4.62-2.407-6.364-1.294-1.727-3.103-2.955-4.72-3.203-.409-.063-.778.328-.825.873-.047.545.246 1.038.654 1.101zM13.845 9.285c.692.106 1.65.791 2.277 1.628.633.845 1.147 2.135 1.223 3.069.042.51.364.886.74.886a.572.572 0 00.08-.005c.41-.06.705-.55.66-1.095-.129-1.594-.922-3.288-1.65-4.26-.721-.963-1.978-2.016-3.16-2.198-.409-.063-.777.329-.825.874-.046.545.247 1.038.655 1.1z" fill="#272727"/></svg>